<svg width="512" height="512" viewBox="0 0 512 512" fill="none" xmlns="http://www.w3.org/2000/svg">
<g clip-path="url(#clip0_2_17)">
<path d="M462 0H50C22.3858 0 0 22.3858 0 50V462C0 489.614 22.3858 512 50 512H462C489.614 512 512 489.614 512 462V50C512 22.3858 489.614 0 462 0Z" fill="#89D2DC"/>
<path d="M366 50H138C112.595 50 92 70.5949 92 96V427C92 452.405 112.595 473 138 473H366C391.405 473 412 452.405 412 427V96C412 70.5949 391.405 50 366 50Z" fill="#FAFAFA" stroke="black" stroke-width="8"/>
<path d="M383.5 129C393.165 129 401 121.165 401 111.5C401 101.835 393.165 94 383.5 94C373.835 94 366 101.835 366 111.5C366 121.165 373.835 129 383.5 129Z" fill="black"/>
<path d="M383.5 189C393.165 189 401 181.165 401 171.5C401 161.835 393.165 154 383.5 154C373.835 154 366 161.835 366 171.5C366 181.165 373.835 189 383.5 189Z" fill="black"/>
<path d="M383.5 249C393.165 249 401 241.165 401 231.5C401 221.835 393.165 214 383.5 214C373.835 214 366 221.835 366 231.5C366 241.165 373.835 249 383.5 249Z" fill="black"/>
<path d="M383.5 309C393.165 309 401 301.165 401 291.5C401 281.835 393.165 274 383.5 274C373.835 274 366 281.835 366 291.5C366 301.165 373.835 309 383.5 309Z" fill="black"/>
<path d="M383.5 369C393.165 369 401 361.165 401 351.5C401 341.835 393.165 334 383.5 334C373.835 334 366 341.835 366 351.5C366 361.165 373.835 369 383.5 369Z" fill="black"/>
<path d="M383.5 429C393.165 429 401 421.165 401 411.5C401 401.835 393.165 394 383.5 394C373.835 394 366 401.835 366 411.5C366 421.165 373.835 429 383.5 429Z" fill="black"/>
<path d="M383 111.999C383 111.999 442 85.4995 442.5 111.999C443 138.499 415 128.999 415 128.999" stroke="black" stroke-width="7"/>
<path d="M383 170.778C383 170.778 442 144.278 442.5 170.778C443 197.278 415 187.778 415 187.778" stroke="black" stroke-width="7"/>
<path d="M383 228.778C383 228.778 442 202.278 442.5 228.778C443 255.278 415 245.778 415 245.778" stroke="black" stroke-width="7"/>
<path d="M383 288.778C383 288.778 442 262.278 442.5 288.778C443 315.278 415 305.778 415 305.778" stroke="black" stroke-width="7"/>
<path d="M383 348.778C383 348.778 442 322.278 442.5 348.778C443 375.278 415 365.778 415 365.778" stroke="black" stroke-width="7"/>
<path d="M383 408.778C383 408.778 442 382.278 442.5 408.778C443 435.278 415 425.778 415 425.778" stroke="black" stroke-width="7"/>
</g>
<defs>
<clipPath id="clip0_2_17">
<rect width="512" height="512" fill="white"/>
</clipPath>
</defs>
</svg>
