<svg width="1028" height="329" viewBox="0 0 1028 329" fill="none" xmlns="http://www.w3.org/2000/svg">
<rect x="758" y="4" width="241.812" height="320.259" rx="46" fill="#FAFAFA" stroke="black" stroke-width="8"/>
<circle cx="979.06" cy="49.886" r="13.3284" fill="black"/>
<circle cx="979.06" cy="95.5813" r="13.3284" fill="black"/>
<circle cx="979.06" cy="141.282" r="13.3284" fill="black"/>
<circle cx="979.06" cy="186.976" r="13.3284" fill="black"/>
<circle cx="979.06" cy="232.674" r="13.3284" fill="black"/>
<circle cx="979.06" cy="278.373" r="13.3284" fill="black"/>
<path d="M978.679 50.2661C978.679 50.2661 1023.61 30.0831 1024 50.2661C1024.38 70.4491 1003.05 63.2137 1003.05 63.2137" stroke="black" stroke-width="7"/>
<path d="M978.679 95.0347C978.679 95.0347 1023.61 74.8517 1024 95.0347C1024.38 115.218 1003.05 107.982 1003.05 107.982" stroke="black" stroke-width="7"/>
<path d="M978.679 139.205C978.679 139.205 1023.61 119.022 1024 139.205C1024.38 159.388 1003.05 152.152 1003.05 152.152" stroke="black" stroke-width="7"/>
<path d="M978.679 184.904C978.679 184.904 1023.61 164.721 1024 184.904C1024.38 205.087 1003.05 197.851 1003.05 197.851" stroke="black" stroke-width="7"/>
<path d="M978.679 230.601C978.679 230.601 1023.61 210.418 1024 230.601C1024.38 250.784 1003.05 243.549 1003.05 243.549" stroke="black" stroke-width="7"/>
<path d="M978.679 276.299C978.679 276.299 1023.61 256.116 1024 276.299C1024.38 296.482 1003.05 289.247 1003.05 289.247" stroke="black" stroke-width="7"/>
<path d="M121 193C127.267 194.333 132.267 197.533 136 202.6C139.867 207.667 141.8 213.4 141.8 219.8V225.8C141.8 232.067 140.6 237.933 138.2 243.4C135.933 249 132.733 253.8 128.6 257.8C124.467 261.933 119.667 265.2 114.2 267.6C108.733 270 102.867 271.2 96.6 271.2H56.8C50 271.2 43.6 269.933 37.6 267.4C31.7333 264.867 26.6 261.4 22.2 257C17.8 252.6 14.3333 247.4 11.8 241.4C9.26667 235.533 8 229.2 8 222.4V176.8H36.8V218.2C36.8 223.533 38.6 228 42.2 231.6C45.9333 235.2 50.4 237 55.6 237H100.6C104.067 237 107 235.8 109.4 233.4C111.8 231 113 228.067 113 224.6V221.4L55.6 208V182.6C55.6 177 56.5333 171.667 58.4 166.6C60.2667 161.4 62.9333 156.8 66.4 152.8C69.8667 148.8 74 145.467 78.8 142.8C83.7333 140.133 89.2 138.4 95.2 137.6L127.2 133.4L132 165.6L95.2 170.2C91.8667 170.6 89.1333 171.933 87 174.2C84.8667 176.333 83.8 179.067 83.8 182.4V185.2L121 193ZM150.205 281.8L141.605 255.2L174.205 244C178.605 242.533 182.138 239.933 184.805 236.2C187.471 232.6 188.805 228.467 188.805 223.8V149.8H217.605V220.8C217.605 226.533 216.738 232 215.005 237.2C213.271 242.533 210.805 247.4 207.605 251.8C204.538 256.2 200.805 260.067 196.405 263.4C192.005 266.733 187.138 269.267 181.805 271L150.205 281.8ZM279.386 226.2C279.386 228.067 278.453 229 276.586 229H272.586C267.253 229 262.186 228 257.386 226C252.586 223.867 248.453 221.067 244.986 217.6C241.519 214.133 238.719 210 236.586 205.2C234.586 200.4 233.586 195.333 233.586 190V87.6H262.586V189.4C262.586 191 263.119 192.333 264.186 193.4C265.253 194.467 266.586 195 268.186 195H276.586C277.386 195 278.053 195.333 278.586 196C279.119 196.533 279.386 197.2 279.386 198V226.2ZM326.963 171.8L306.163 152L370.163 77L390.763 96.2L353.563 140.2H427.363C432.429 140.2 437.229 141.2 441.763 143.2C446.296 145.067 450.229 147.667 453.563 151C456.896 154.333 459.496 158.267 461.363 162.8C463.363 167.2 464.363 172 464.363 177.2V192C464.363 197.333 463.296 202.267 461.163 206.8C459.029 211.333 456.163 215.267 452.563 218.6C449.096 221.933 445.029 224.533 440.363 226.4C435.829 228.133 431.096 229 426.163 229H276.562C275.762 229 275.096 228.733 274.562 228.2C274.029 227.533 273.762 226.8 273.762 226V197.8C273.762 195.933 274.696 195 276.562 195H431.763C432.429 195 433.163 194.667 433.963 194C434.896 193.333 435.363 192.333 435.363 191V176.4C435.363 175.067 434.896 174 433.963 173.2C433.029 172.267 431.963 171.8 430.763 171.8H326.963ZM284.963 128.4L336.963 67.4L350.163 80.6L299.763 139.6L284.963 128.4ZM508.913 229C504.779 229 500.846 228.2 497.113 226.6C493.379 225 490.113 222.8 487.313 220C484.513 217.2 482.313 213.933 480.713 210.2C479.113 206.467 478.313 202.533 478.313 198.4V168.4H502.313V191.8C502.313 193.933 503.446 195 505.713 195H539.113C543.113 195 545.979 193.667 547.713 191C549.446 188.2 549.246 184.867 547.113 181L521.113 134L545.713 118.2L572.913 166.8C576.379 173.067 577.979 179.867 577.713 187.2C577.579 194.4 575.913 201.133 572.713 207.4C569.513 213.533 565.046 218.667 559.313 222.8C553.579 226.933 546.979 229 539.513 229H508.913ZM637.784 226.2C637.784 228.067 636.851 229 634.984 229H630.984C625.651 229 620.584 228 615.784 226C610.984 223.867 606.851 221.067 603.384 217.6C599.918 214.133 597.118 210 594.984 205.2C592.984 200.4 591.984 195.333 591.984 190V87.6H620.984V189.4C620.984 191 621.518 192.333 622.584 193.4C623.651 194.467 624.984 195 626.584 195H634.984C635.784 195 636.451 195.333 636.984 196C637.518 196.533 637.784 197.2 637.784 198V226.2ZM639.761 253H665.761V280H639.761V253ZM665.761 253H691.761V280H665.761V253ZM680.961 195C682.561 195 683.894 194.467 684.961 193.4C686.028 192.2 686.561 190.867 686.561 189.4V143.6H715.361V189.2C715.361 194.667 714.294 199.867 712.161 204.8C710.161 209.6 707.361 213.8 703.761 217.4C700.161 221 695.894 223.867 690.961 226C686.161 228 681.028 229 675.561 229H634.961C634.161 229 633.494 228.733 632.961 228.2C632.428 227.533 632.161 226.867 632.161 226.2V198.2C632.161 197.4 632.428 196.667 632.961 196C633.494 195.333 634.161 195 634.961 195H680.961Z" fill="black"/>
</svg>
